# xmcd
#
# Track frame offsets:
#        150
#        11233
#        24859
#        37247
#        49789
#        64055
#        78090
#        90348
#        102271
#        112326
#        124605
#        135865
#        148148
#        161307
#        172381
#        184008
#        195377
#        208246
#        220349
#        230330
#        243652
#        256834
#        268486
#        280236
#        292889
#        305919
#        317117
#        323189
#        336150
#
# Disc length: 4649 seconds
#
# Revision: 2
# Processed by: cddbd v1.5.2PL0 Copyright (c) Steve Scherf et al.
# Submitted via: jack 3.1.1
#
DISCID=b612271d
DTITLE=Various Artist - You Got to Give Me Some of It:  55 Risqué Blu
DTITLE=es and R&B Classics, 1928-1954 CD2
DYEAR=2015
DGENRE=Risqué
TTITLE0=Dirty Red - Dirty Mother Fuyer
TTITLE1=Julia Lee - I Didn't Like It the First Time (The Spinach Song)
TTITLE2=Amos Milburn - Hard Driving Blues
TTITLE3=Bull Moose Jackson - I Want a Bowlegged Woman
TTITLE4=Dinah Washington - Long John Blues
TTITLE5=Wynonie Harris - I Want My Fanny Brown
TTITLE6=Julia Lee - King Size Papa
TTITLE7=Wynonie Harris - Sittin' on It All the Time
TTITLE8=Julia Lee - My Man Stands Out
TTITLE9=Wynonie Harris - I Like My Baby's Pudding
TTITLE10=Roy Brown - Butcher Pete, Part One
TTITLE11=Roy Brown - Butcher Pete, Part Two
TTITLE12=Fluffy Hunter - Walkin' Blues
TTITLE13=Wynonie Harris - Lovin' Machine
TTITLE14=The Swallows - It Ain't the Meat, It's the Motion
TTITLE15=The Dominoes - Sixty Minute Man
TTITLE16=The The Du Droppers - Can't Do Sixty No More
TTITLE17=Lonnie Johnson - Jelly Roll Baker
TTITLE18=Bull Moose Jackson - Big Ten Inch
TTITLE19=Dorothy Ellis - Drill Daddy Drill
TTITLE20=Wynonie Harris - Keep on Churnin' ('Til The Butter Comes)
TTITLE21=The Dominoes - Pedal Pushin' Papa
TTITLE22=The Swallows - Bicycle Tillie
TTITLE23=The Blenders - Don't Fuck Around with Love
TTITLE24=Dinah Washington - Short John
TTITLE25=Wynonie Harris - Wasn't That Good
TTITLE26=The Clovers - Rotten Cocksuckers Ball
TTITLE27=The Checkers - Don't Stop Dan
TTITLE28=The Toppers - Baby Let Me Bang Your Box
EXTD=
EXTT0=
EXTT1=
EXTT2=
EXTT3=
EXTT4=
EXTT5=
EXTT6=
EXTT7=
EXTT8=
EXTT9=
EXTT10=
EXTT11=
EXTT12=
EXTT13=
EXTT14=
EXTT15=
EXTT16=
EXTT17=
EXTT18=
EXTT19=
EXTT20=
EXTT21=
EXTT22=
EXTT23=
EXTT24=
EXTT25=
EXTT26=
EXTT27=
EXTT28=
PLAYORDER=
